<svg xmlns="http://www.w3.org/2000/svg" data-name="Слой 1" viewBox="0 0 128 160" x="0px" y="0px"><title>ic_whistle</title><path d="M126,79a2,2,0,0,1-2-2V47a2,2,0,0,1,4,0V77A2,2,0,0,1,126,79Z"/><path d="M126,49H86a2,2,0,0,0-1.56.75L81,54H55l-3.4-4.25A2,2,0,0,0,50,49,39.9,39.9,0,0,0,10.77,80.64H8a8,8,0,0,0,0,16h2.88a39.68,39.68,0,0,0,77.46.64C91.07,86.19,100.68,75,116,75h10a2,2,0,0,0,2-2V51A2,2,0,0,0,126,49ZM8,92.64a4,4,0,0,1,0-8h2.18c-.11,1.21-.18,2.44-.18,3.68a41.08,41.08,0,0,0,.24,4.32ZM124,71h-8C98.51,71,87.56,83.72,84.46,96.33a35.69,35.69,0,0,1-70.46-8C14,69.16,29.64,53.51,49.05,53l3.39,4.24A2,2,0,0,0,54,58H82a2,2,0,0,0,1.56-.75L87,53h37Z"/><path d="M49.5,65A23.5,23.5,0,1,0,73,88.5,23.52,23.52,0,0,0,49.5,65Zm0,43A19.5,19.5,0,1,1,69,88.5,19.53,19.53,0,0,1,49.5,108Z"/><path d="M68,40a2,2,0,0,0,2-2V2a2,2,0,0,0-4,0V38A2,2,0,0,0,68,40Z"/><path d="M54.39,39.57a2,2,0,0,0,1.88,1.3,2,2,0,0,0,.69-.12,2,2,0,0,0,1.18-2.57L45.61,4.43a2,2,0,1,0-3.75,1.39Z"/><path d="M79,40.75a2,2,0,0,0,.69.12,2,2,0,0,0,1.88-1.3L94.14,5.82a2,2,0,0,0-3.75-1.39L77.86,38.18A2,2,0,0,0,79,40.75Z"/><text x="0" y="143" fill="#000000" font-size="5px" font-weight="bold" font-family="'Helvetica Neue', Helvetica, Arial-Unicode, Arial, Sans-serif">Created by LAFS</text><text x="0" y="148" fill="#000000" font-size="5px" font-weight="bold" font-family="'Helvetica Neue', Helvetica, Arial-Unicode, Arial, Sans-serif">from the Noun Project</text></svg>