<svg xmlns="http://www.w3.org/2000/svg" viewBox="0 0 32 40" x="0px" y="0px"><title>Your Video</title><g data-name="Layer 16"><path d="M13,13.62,17.76,16,13,18.38ZM30,5V27a3,3,0,0,1-3,3H5a3,3,0,0,1-3-3V5A3,3,0,0,1,5,2H27A3,3,0,0,1,30,5ZM21,16a1,1,0,0,0-.55-.89l-8-4A1,1,0,0,0,11,12v8a1,1,0,0,0,.47.85A1,1,0,0,0,12,21a1,1,0,0,0,.45-.11l8-4A1,1,0,0,0,21,16Z"/></g><text x="0" y="47" fill="#000000" font-size="5px" font-weight="bold" font-family="'Helvetica Neue', Helvetica, Arial-Unicode, Arial, Sans-serif">Created by Debi Alpa Nugraha</text><text x="0" y="52" fill="#000000" font-size="5px" font-weight="bold" font-family="'Helvetica Neue', Helvetica, Arial-Unicode, Arial, Sans-serif">from the Noun Project</text></svg>