<svg xmlns="http://www.w3.org/2000/svg" viewBox="0 0 100 125" x="0px" y="0px"><title>movies, christmas, cinema, clapperboard</title><g><path d="M83.7819,39.49173h-50.199l-3.202-3.202L81.64978,15.05345A2.59836,2.59836,0,0,0,83.057,11.65658l-2.302-5.55743a2.59845,2.59845,0,0,0-3.39707-1.407L15.22419,30.42884A2.59837,2.59837,0,0,0,13.817,33.82572l2.302,5.55722c.01909.0461.04058.09043.062.13482a2.60206,2.60206,0,0,0-2.25232,2.574V89.707a5.80662,5.80662,0,0,0,5.8,5.8H80.5819a5.80661,5.80661,0,0,0,5.8-5.8V42.09173A2.603,2.603,0,0,0,83.7819,39.49173Zm.6,2.6V48.707H75.93316L79.065,41.49173H83.7819A.60066.60066,0,0,1,84.3819,42.09173ZM40.79166,48.707l3.13187-7.21524h4.84579L45.63745,48.707ZM50.9496,41.49173h4.853L52.67075,48.707h-4.853Zm7.03331,0h4.84578L59.69682,48.707H54.851Zm7.02607,0h4.84969L66.7268,48.707H61.87711Zm7.03,0h4.84579L73.75288,48.707H68.90709ZM20.0447,33.21165A1.83493,1.83493,0,0,1,23.177,31.91419L34.06335,42.80052a1.83246,1.83246,0,0,1-1.29482,3.13242l-10.88633.01524h-.00264a1.83382,1.83382,0,0,1-1.83486-1.83477Zm4.54658-2.71152a3.83,3.83,0,0,0-1.8272-1.02974l16.52069-6.84311-.13236,7.86445L28.85022,34.75907ZM65.12761,19.7325,60.6472,21.58831l.13236-7.86445L65.26,11.868Zm2.14677-8.69887,4.4768-1.85435-.13236,7.86445L67.142,18.89808Zm-8.6416,11.38911L54.156,24.27708l.13236-7.86445,4.47679-1.85435Zm-6.49121,2.68872L47.658,26.96859l.13236-7.86446L52.27393,17.247Zm-6.498,2.69155-4.47679,1.85435.13236-7.86446L45.776,19.93856ZM78.12351,6.53978a.59966.59966,0,0,1,.78379.32461l2.30195,5.55742a.59975.59975,0,0,1-.32481.784l-7.2512,3.00357.13234-7.8645ZM15.66472,33.06048a.59976.59976,0,0,1,.3248-.784l2.619-1.08487a3.83162,3.83162,0,0,0-.56386,2.02v5.5375a.59285.59285,0,0,1-.078-.13144Zm.26386,9.03125a.60066.60066,0,0,1,.6-.6H18.0447v2.62168a3.83283,3.83283,0,0,0,3.83486,3.83477h.00537l10.88633-.01524a3.832,3.832,0,0,0,2.80432-6.44121h6.16766L38.61137,48.707H15.92858ZM84.3819,89.707a3.80432,3.80432,0,0,1-3.8,3.8H19.72858a3.80433,3.80433,0,0,1-3.8-3.8v-39H84.3819Z"/><circle cx="22.05499" cy="33.80628" r="1.2"/><circle cx="22.05499" cy="43.08617" r="1.2"/><circle cx="31.55854" cy="43.08617" r="1.2"/><path d="M38.71853,85.37259H56.73376a5.17455,5.17455,0,0,0,5.10249-6.01616,5.46675,5.46675,0,0,0,.37559-10.82964,12.43341,12.43341,0,0,0-12.03492-9.68564c-9.02885,0-12.95989,7.44445-12.93473,16.40454a5.171,5.171,0,0,0,1.47634,10.1269ZM64.76335,73.916A3.46739,3.46739,0,1,1,61.296,70.44857,3.47132,3.47132,0,0,1,64.76335,73.916ZM50.17692,60.84115a10.48435,10.48435,0,0,1,10.00993,7.7207,5.481,5.481,0,0,0-3.44456,2.33257,5.8753,5.8753,0,0,0-1.64681-2.25757,1.00725,1.00725,0,0,0-1.40283.22246.99251.99251,0,0,0,.2207,1.39062c.06824.05293,1.54492,1.24327,1.78621,4.77989H39.245C39.31835,67.3213,42.35,60.84115,50.17692,60.84115ZM38.71853,77.02982c5.05358.00058,17.91318-.0015,18.08907.00268a5.48748,5.48748,0,0,0,2.92057,2.12061,3.17436,3.17436,0,0,1-2.99441,4.21948H38.71853a3.17139,3.17139,0,1,1,0-6.34277Z"/></g><text x="0" y="115" fill="#000000" font-size="5px" font-weight="bold" font-family="'Helvetica Neue', Helvetica, Arial-Unicode, Arial, Sans-serif">Created by Bacontaco</text><text x="0" y="120" fill="#000000" font-size="5px" font-weight="bold" font-family="'Helvetica Neue', Helvetica, Arial-Unicode, Arial, Sans-serif">from the Noun Project</text></svg>