<svg xmlns="http://www.w3.org/2000/svg" xmlns:xlink="http://www.w3.org/1999/xlink" version="1.1" x="0px" y="0px" viewBox="0 0 100 125" enable-background="new 0 0 100 100" xml:space="preserve"><g><g><g><path d="M73.107,72.785c0,1.413,1.543,2.065,3.547,2.526v-5.265c-0.802,0.182-1.66,0.497-2.293,0.91     C73.564,71.477,73.107,72.128,73.107,72.785z"/><path d="M80.263,84.914c1-0.181,1.749-0.496,2.382-0.91c0.798-0.52,1.275-1.171,1.275-1.828c0-1.412-1.655-2.063-3.659-2.525     v5.263H80.263z"/><path d="M76.654,75.311c-2.004-0.461-3.547-1.114-3.547-2.526c0-0.656,0.457-1.307,1.254-1.828     c0.633-0.413,1.491-0.729,2.293-0.91V75.311z M83.943,82.176c0,0.657-0.524,1.308-1.319,1.829     c-0.635,0.413-1.361,0.729-2.361,0.91v-5.264C82.265,80.112,83.943,80.764,83.943,82.176z"/></g><g><path fill="none" d="M82.652,70.957c0.798,0.521,1.319,1.172,1.319,1.828c0,0.986,0.813,1.786,1.8,1.786     c0.984,0,1.792-0.8,1.792-1.786c0-1.935-1.173-3.634-2.978-4.813c-1.167-0.761-2.721-1.307-4.323-1.542v-0.397     c0-0.986-0.818-1.785-1.806-1.785c-0.984,0-1.803,0.799-1.803,1.785v0.397c-1.604,0.234-3.027,0.78-4.193,1.542     c-1.806,1.179-2.96,2.877-2.96,4.813c0,4.292,3.346,5.41,7.153,6.168v5.961c-0.802-0.181-1.622-0.496-2.255-0.91     c-0.797-0.52-1.252-1.171-1.252-1.828c0-0.985-0.78-1.785-1.766-1.785c-0.986,0-1.774,0.8-1.774,1.785     c0,1.936,1.044,3.634,2.85,4.813c1.164,0.761,2.593,1.308,4.197,1.542v0.397c0,0.986,0.818,1.785,1.803,1.785     c0.987,0,1.806-0.799,1.806-1.785V88.53c1.603-0.234,3.16-0.781,4.327-1.542c1.805-1.179,2.893-2.876,2.893-4.813     c0-4.292-3.413-5.409-7.22-6.167v-5.963C81.263,70.228,82.02,70.543,82.652,70.957z"/><path d="M89.536,66.538c-2.801-2.801-6.669-4.534-10.941-4.534c-4.273,0-8.144,1.733-10.945,4.534     c-2.8,2.801-4.533,6.67-4.533,10.943c0,4.273,1.733,8.143,4.533,10.944c2.802,2.801,6.672,4.533,10.945,4.533     c4.272,0,8.143-1.732,10.941-4.533c2.802-2.801,4.534-6.67,4.534-10.944C94.07,73.208,92.338,69.338,89.536,66.538z      M87.506,82.176c0,1.937-1.134,3.634-2.939,4.813c-1.164,0.761-2.701,1.308-4.304,1.542v0.397c0,0.986-0.818,1.785-1.806,1.785     c-0.984,0-1.803-0.799-1.803-1.785V88.53c-1.604-0.234-3.029-0.781-4.195-1.542c-1.806-1.179-2.868-2.876-2.868-4.813     c0-0.985,0.805-1.785,1.791-1.785c0.985,0,1.782,0.8,1.782,1.785c0,0.657,0.435,1.308,1.231,1.829     c0.633,0.413,1.457,0.729,2.259,0.91v-5.962c-3.808-0.758-7.133-1.875-7.133-6.167c0-1.936,1.113-3.634,2.916-4.813     c1.167-0.762,2.612-1.308,4.217-1.542v-0.397c0-0.985,0.818-1.784,1.803-1.784c0.987,0,1.806,0.799,1.806,1.784v0.397     c1.603,0.234,3.16,0.78,4.327,1.542c1.805,1.178,2.956,2.877,2.956,4.813c0,0.986-0.79,1.785-1.774,1.785     c-0.986,0-1.782-0.799-1.782-1.785c0-0.656-0.543-1.308-1.341-1.829c-0.633-0.413-1.386-0.729-2.386-0.91v5.963     C84.069,76.767,87.506,77.884,87.506,82.176z"/><g><path fill="none" d="M59.548,77.487c0-5.259,2.132-10.015,5.579-13.461c3.446-3.447,8.208-5.568,13.468-5.568      c0.666,0,1.325,0.059,1.976,0.126l2.922-24.616H68.839v7.801c0.802,0.29,1.545,0.746,2.124,1.326      c1.037,1.035,1.714,2.467,1.714,4.047s-0.629,3.012-1.666,4.048c-1.036,1.036-2.463,1.677-4.046,1.677      c-1.579,0-3.012-0.641-4.048-1.677c-1.034-1.036-1.683-2.467-1.683-4.048s0.579-3.012,1.615-4.047      c0.676-0.675,1.58-1.182,2.381-1.454v-7.673H24.147v7.733c0.801,0.283,1.677,0.766,2.304,1.394      c1.036,1.035,1.696,2.467,1.696,4.047s-0.631,3.012-1.666,4.048c-1.036,1.036-2.463,1.677-4.044,1.677s-3.01-0.641-4.046-1.677      c-1.036-1.036-1.679-2.467-1.679-4.048s0.587-3.012,1.623-4.047c0.629-0.628,1.403-1.111,2.205-1.394v-7.733H5.93L13.712,99.5      h61.997l0.377-3.154c-4.256-0.56-8.069-2.505-10.959-5.395C61.68,87.504,59.548,82.746,59.548,77.487z"/><path fill="none" d="M89.536,66.538c-2.801-2.801-6.669-4.534-10.941-4.534c-4.273,0-8.144,1.733-10.945,4.534      c-2.8,2.801-4.533,6.67-4.533,10.943c0,4.273,1.733,8.143,4.533,10.944c2.802,2.801,6.672,4.533,10.945,4.533      c4.272,0,8.143-1.732,10.941-4.533c2.802-2.801,4.534-6.67,4.534-10.944C94.07,73.208,92.338,69.338,89.536,66.538z"/><g><path fill="none" d="M59.548,77.487c0-5.259,2.132-10.015,5.579-13.461c3.446-3.447,8.208-5.568,13.468-5.568       c0.666,0,1.325,0.059,1.976,0.126l2.922-24.616H68.839v7.801c0.802,0.29,1.545,0.746,2.124,1.326       c1.037,1.035,1.714,2.467,1.714,4.047s-0.629,3.012-1.666,4.048c-1.036,1.036-2.463,1.677-4.046,1.677       c-1.579,0-3.012-0.641-4.048-1.677c-1.034-1.036-1.683-2.467-1.683-4.048s0.579-3.012,1.615-4.047       c0.676-0.675,1.58-1.182,2.381-1.454v-7.673H24.147v7.733c0.801,0.283,1.677,0.766,2.304,1.394       c1.036,1.035,1.696,2.467,1.696,4.047s-0.631,3.012-1.666,4.048c-1.036,1.036-2.463,1.677-4.044,1.677s-3.01-0.641-4.046-1.677       c-1.036-1.036-1.679-2.467-1.679-4.048s0.587-3.012,1.623-4.047c0.629-0.628,1.403-1.111,2.205-1.394v-7.733H5.93L13.712,99.5       h61.997l0.377-3.154c-4.256-0.56-8.069-2.505-10.959-5.395C61.68,87.504,59.548,82.746,59.548,77.487z"/><path fill="none" d="M89.536,66.538c-2.801-2.801-6.669-4.534-10.941-4.534c-4.273,0-8.144,1.733-10.945,4.534       c-2.8,2.801-4.533,6.67-4.533,10.943c0,4.273,1.733,8.143,4.533,10.944c2.802,2.801,6.672,4.533,10.945,4.533       c4.272,0,8.143-1.732,10.941-4.533c2.802-2.801,4.534-6.67,4.534-10.944C94.07,73.208,92.338,69.338,89.536,66.538z"/></g></g></g></g><g><path fill="none" d="M89.536,66.538c-2.801-2.801-6.669-4.534-10.941-4.534c-4.273,0-8.144,1.733-10.945,4.534    c-2.8,2.801-4.533,6.67-4.533,10.943c0,4.273,1.733,8.143,4.533,10.944c2.802,2.801,6.672,4.533,10.945,4.533    c4.272,0,8.143-1.732,10.941-4.533c2.802-2.801,4.534-6.67,4.534-10.944C94.07,73.208,92.338,69.338,89.536,66.538z"/></g><path d="M68.839,33.968V26.32c0-7.043-2.656-13.483-7.012-18.166C57.438,3.438,51.415,0.5,44.777,0.5   c-6.663,0-12.76,2.923-17.143,7.632c-4.35,4.675-7.094,11.114-7.094,18.188v7.648H5.93L13.712,99.5h61.997l0.377-3.154   c-4.256-0.56-8.069-2.505-10.959-5.395c-3.447-3.447-5.579-8.206-5.579-13.464s2.132-10.015,5.579-13.461   c3.446-3.447,8.208-5.568,13.466-5.568c0.668,0,1.327,0.059,1.976,0.126l2.924-24.616H68.839z M26.491,51.19   c-1.034,1.036-2.467,1.677-4.048,1.677s-3.014-0.641-4.05-1.677s-1.681-2.467-1.681-4.048s0.589-3.012,1.625-4.047   c0.627-0.628,1.401-1.111,2.203-1.394v0.083v4.199c-0.201,0.334-0.297,0.732-0.297,1.159c0,0.595,0.264,1.134,0.656,1.523   c0.388,0.39,0.938,0.632,1.533,0.632s1.14-0.242,1.53-0.632c0.39-0.389,0.589-0.928,0.589-1.523c0-0.442-0.004-0.854-0.405-1.196   v-4.164v-0.083c0.801,0.283,1.677,0.766,2.304,1.394c1.036,1.035,1.696,2.467,1.696,4.047S27.528,50.154,26.491,51.19z    M24.147,33.968V26.32c0-6.146,2.373-11.725,6.13-15.762c3.724-4.003,8.877-6.488,14.51-6.488c5.608,0,10.67,2.5,14.403,6.511   c3.763,4.045,6.04,9.624,6.04,15.739v7.648H24.147z M71.022,51.19c-1.036,1.036-2.469,1.677-4.052,1.677   c-1.579,0-3.016-0.641-4.052-1.677c-1.034-1.036-1.685-2.467-1.685-4.048s0.579-3.012,1.615-4.047   c0.676-0.675,1.58-1.182,2.381-1.454v4.409c0,0.321-0.254,0.694-0.254,1.092c0,0.595,0.264,1.134,0.653,1.524   c0.391,0.39,0.939,0.632,1.534,0.632c0.597,0,1.14-0.242,1.531-0.632c0.391-0.389,0.587-0.929,0.587-1.524   c0-0.467-0.044-0.898-0.445-1.252v-4.106h0.128c0.786,0.29,1.475,0.741,2.045,1.311c1.034,1.035,1.689,2.467,1.689,4.047   S72.058,50.154,71.022,51.19z"/></g><text x="0" y="115" fill="#000000" font-size="5px" font-weight="bold" font-family="'Helvetica Neue', Helvetica, Arial-Unicode, Arial, Sans-serif">Created by Blackonion</text><text x="0" y="120" fill="#000000" font-size="5px" font-weight="bold" font-family="'Helvetica Neue', Helvetica, Arial-Unicode, Arial, Sans-serif">from the Noun Project</text></svg>