<svg xmlns="http://www.w3.org/2000/svg" xmlns:xlink="http://www.w3.org/1999/xlink" version="1.1" x="0px" y="0px" viewBox="-449 451 100 125" style="enable-background:new -449 451 100 100;" xml:space="preserve"><path d="M-365.2,473.5h-67.6c-3.4,0-6.2,2.8-6.2,6.2v42.5c0,3.4,2.8,6.2,6.2,6.2h67.6c3.4,0,6.2-2.8,6.2-6.2v-42.5  C-359,476.3-361.8,473.5-365.2,473.5z M-432.8,475.3h67.6c2.4,0,4.4,2,4.4,4.4v2.1h-76.5v-2.1C-437.2,477.3-435.2,475.3-432.8,475.3  z M-365.2,526.7h-67.6c-2.4,0-4.4-2-4.4-4.4v-38.7h76.5v38.7C-360.8,524.7-362.8,526.7-365.2,526.7z"/><circle cx="-431.9" cy="478.5" r="1.9"/><circle cx="-425.4" cy="478.5" r="1.9"/><circle cx="-419" cy="478.5" r="1.9"/><g><path d="M-408.1,517.2v-26.5l23,13.3L-408.1,517.2z M-406.3,493.7v20.4l17.7-10.2L-406.3,493.7z"/></g><text x="-449" y="566" fill="#000000" font-size="5px" font-weight="bold" font-family="'Helvetica Neue', Helvetica, Arial-Unicode, Arial, Sans-serif">Created by Marianna Rossi</text><text x="-449" y="571" fill="#000000" font-size="5px" font-weight="bold" font-family="'Helvetica Neue', Helvetica, Arial-Unicode, Arial, Sans-serif">from the Noun Project</text></svg>