<svg xmlns="http://www.w3.org/2000/svg" xmlns:xlink="http://www.w3.org/1999/xlink" version="1.1" x="0px" y="0px" viewBox="0 0 100 125" style="enable-background:new 0 0 100 100;" xml:space="preserve"><style type="text/css">
	.st0{fill:none;stroke:#000000;stroke-width:2;stroke-miterlimit:10;}
	.st1{stroke:#000000;stroke-miterlimit:10;}
	.st2{fill:none;stroke:#000000;stroke-width:0.5;stroke-miterlimit:10;}
	.st3{fill:none;stroke:#000000;stroke-width:1.5;stroke-miterlimit:10;}
</style><path class="st0" d="M78.3,47.6c11.2,0,20.3,9.1,20.3,20.3s-9.1,20.3-20.3,20.3c-7.6,0-13.8-4.1-17.3-10.3l0,0l-22.6,0l0,0  c-3.5,6.1-9.1,10.3-16.7,10.3c-11.2,0-20.3-9.1-20.3-20.3s9.1-20.3,20.3-20.3h-1.3h59.2"/><circle class="st1" cx="78.9" cy="75.5" r="3.4"/><circle class="st1" cx="71" cy="67.5" r="3.4"/><circle class="st1" cx="86.8" cy="67.5" r="3.4"/><circle class="st1" cx="78.9" cy="59.2" r="3.4"/><path class="st1" d="M21.9,77.9L21.9,77.9c-1.3,0-2.4-1.1-2.4-2.4v-2.9c0-1.3,1.1-2.4,2.4-2.4h0c1.3,0,2.4,1.1,2.4,2.4v2.9  C24.2,76.9,23.2,77.9,21.9,77.9z"/><path class="st1" d="M21.9,64.6L21.9,64.6c-1.3,0-2.4-1.1-2.4-2.4v-2.9c0-1.3,1.1-2.4,2.4-2.4h0c1.3,0,2.4,1.1,2.4,2.4v2.9  C24.3,63.6,23.2,64.6,21.9,64.6z"/><path class="st1" d="M25.1,67.3L25.1,67.3c0-1.3,1.1-2.4,2.4-2.4h2.9c1.3,0,2.4,1.1,2.4,2.4v0c0,1.3-1.1,2.4-2.4,2.4h-2.9  C26.2,69.7,25.1,68.6,25.1,67.3z"/><path class="st1" d="M10.5,67.4L10.5,67.4c0-1.3,1.1-2.4,2.4-2.4h2.9c1.3,0,2.4,1.1,2.4,2.4l0,0c0,1.3-1.1,2.4-2.4,2.4h-2.9  C11.6,69.8,10.5,68.7,10.5,67.4z"/><path class="st1" d="M47.9,65.9H43c-0.5,0-0.9-0.4-0.9-0.9l0,0c0-0.5,0.4-0.9,0.9-0.9h4.8c0.5,0,0.9,0.4,0.9,0.9l0,0  C48.8,65.5,48.4,65.9,47.9,65.9z"/><path class="st1" d="M57,65.9h-4.8c-0.5,0-0.9-0.4-0.9-0.9l0,0c0-0.5,0.4-0.9,0.9-0.9H57c0.5,0,0.9,0.4,0.9,0.9l0,0  C57.8,65.5,57.4,65.9,57,65.9z"/><rect x="42.2" y="57.4" class="st2" width="15.7" height="3.6"/><polyline class="st1" points="45.5,47.6 48.8,43.3 51.2,43.3 54.5,47.6 "/><line class="st3" x1="50" y1="45.4" x2="50" y2="21.5"/><text x="0" y="115" fill="#000000" font-size="5px" font-weight="bold" font-family="'Helvetica Neue', Helvetica, Arial-Unicode, Arial, Sans-serif">Created by Jahnico Walcott-Park</text><text x="0" y="120" fill="#000000" font-size="5px" font-weight="bold" font-family="'Helvetica Neue', Helvetica, Arial-Unicode, Arial, Sans-serif">from the Noun Project</text></svg>