<svg xmlns:inkscape="http://www.inkscape.org/namespaces/inkscape" xmlns:sodipodi="http://sodipodi.sourceforge.net/DTD/sodipodi-0.dtd" xmlns="http://www.w3.org/2000/svg" xmlns:svg="http://www.w3.org/2000/svg" xmlns:rdf="http://www.w3.org/1999/02/22-rdf-syntax-ns#" xmlns:cc="http://creativecommons.org/ns#" xmlns:dc="http://purl.org/dc/elements/1.1/" viewBox="0 0 10.583333 13.2291675" version="1.1" x="0px" y="0px"><g><path style="color:#000000;paint-order:fill markers stroke;" d="m 5.6210472,1.9851497 c -1.5193724,0 -2.8022364,1.029923 -3.1879169,2.428275 H 1.849187 a 0.19690052,0.19690052 0 0 0 -0.1581309,0.312643 l 0.8371575,1.145149 a 0.19690052,0.19690052 0 0 0 0.3183282,0 l 0.835607,-1.145149 A 0.19690052,0.19690052 0 0 0 3.523502,4.4134247 H 2.9845167 c 0.3663209,-1.1051 1.4062101,-1.899109 2.6365305,-1.899109 1.5374461,0 2.7791595,1.239648 2.7791595,2.777092 0,1.537445 -1.2417134,2.777608 -2.7791595,2.777608 -0.916215,1e-6 -1.7725998,-0.45158 -2.2908154,-1.207162 a 0.26458349,0.26458349 0 0 0 -0.3674189,-0.06821 0.26458349,0.26458349 0 0 0 -0.068212,0.368969 c 0.6165638,0.89898 1.63635,1.435571 2.7264465,1.435571 1.823429,0 3.3088421,-1.483346 3.3088421,-3.306774 0,-1.823427 -1.4854131,-3.306258 -3.3088421,-3.306258 z m -0.1834488,1.630908 a 0.26458349,0.26458349 0 0 0 -0.2635515,0.265617 v 1.636592 a 0.26460995,0.26460995 0 0 0 0.1152393,0.218591 l 0.8903837,0.607715 a 0.26458349,0.26458349 0 0 0 0.367419,-0.06873 0.26458349,0.26458349 0 0 0 -0.068728,-0.366903 L 5.7032136,5.3777067 V 3.8816747 A 0.26458349,0.26458349 0 0 0 5.4375984,3.6160577 Z" fill="#000000" fill-rule="evenodd" stroke-width="1" stroke-linecap="round" stroke-linejoin="round"/></g><text x="0" y="25.583334" fill="#000000" font-size="5px" font-weight="bold" font-family="'Helvetica Neue', Helvetica, Arial-Unicode, Arial, Sans-serif">Created by Alzam</text><text x="0" y="30.583334" fill="#000000" font-size="5px" font-weight="bold" font-family="'Helvetica Neue', Helvetica, Arial-Unicode, Arial, Sans-serif">from the Noun Project</text></svg>