<svg xmlns="http://www.w3.org/2000/svg" xmlns:xlink="http://www.w3.org/1999/xlink" version="1.1" x="0px" y="0px" viewBox="0 0 80 100" enable-background="new 0 0 80 80" xml:space="preserve"><g><path fill="#000000" d="M32.3,51.5L32.3,51.5c-1.8,0-3.3-1.4-3.3-3.1V37.3c0-1.7,1.5-3.1,3.3-3.1c0.5,0,1,0.1,1.5,0.4l10.7,5.5   c1,0.5,1.6,1.5,1.6,2.7c0,1.2-0.6,2.2-1.7,2.8l-10.6,5.6C33.3,51.3,32.8,51.5,32.3,51.5z M32.3,36.2c-0.6,0-1.3,0.4-1.3,1.1v11.1   c0,0.6,0.7,1.1,1.3,1.1l0,0c0.2,0,0.4,0,0.5-0.1l10.6-5.6c0.4-0.2,0.6-0.6,0.6-1c0-0.2-0.1-0.6-0.5-0.9l-10.7-5.5   C32.6,36.2,32.4,36.2,32.3,36.2z"/></g><g><path fill="#000000" d="M61.9,65H11.1C9.4,65,8,63.6,8,61.9V22.1c0-1.7,1.4-3.1,3.1-3.1h50.8c1.7,0,3.1,1.4,3.1,3.1v39.8   C65,63.6,63.6,65,61.9,65z M11.1,21c-0.6,0-1.1,0.5-1.1,1.1v39.8c0,0.6,0.5,1.1,1.1,1.1h50.8c0.6,0,1.1-0.5,1.1-1.1V22.1   c0-0.6-0.5-1.1-1.1-1.1H11.1z"/></g><g><path fill="#000000" d="M65,16h-2c0-1-0.5-1-1.1-1H11.1c-0.6,0-1.1,0-1.1,1H8c0-2,1.4-3,3.1-3h50.8C63.6,13,65,14,65,16z"/></g><g><path fill="#000000" d="M67.7,51.7l-1.5-1.3c7.7-8.7,5.1-25.8,2.9-29.8l1.7-1C73.4,24,76.2,42.1,67.7,51.7z"/></g><g><polygon fill="#000000" points="67.9,25.3 66.1,24.7 68.3,17.9 76.1,19 75.9,21 69.7,20.1  "/></g><text x="0" y="95" fill="#000000" font-size="5px" font-weight="bold" font-family="'Helvetica Neue', Helvetica, Arial-Unicode, Arial, Sans-serif">Created by Yaroslav Samoylov</text><text x="0" y="100" fill="#000000" font-size="5px" font-weight="bold" font-family="'Helvetica Neue', Helvetica, Arial-Unicode, Arial, Sans-serif">from the Noun Project</text></svg>