<svg xmlns="http://www.w3.org/2000/svg" xmlns:xlink="http://www.w3.org/1999/xlink" version="1.1" x="0px" y="0px" viewBox="0 0 100 125" enable-background="new 0 0 100 100" xml:space="preserve"><g><rect fill="none" width="100" height="100"/></g><g><path d="M26.464,14.546c0.412,0.412,0.952,0.617,1.49,0.617c0.54,0,1.078-0.206,1.49-0.617c0.823-0.823,0.823-2.156,0-2.979   l-4.95-4.95c-0.823-0.823-2.156-0.823-2.979,0s-0.823,2.156,0,2.979L26.464,14.546z"/><path d="M72.044,15.164c0.54,0,1.08-0.206,1.492-0.617l4.95-4.95c0.823-0.823,0.823-2.156,0-2.979s-2.156-0.823-2.979,0   l-4.952,4.95c-0.823,0.823-0.823,2.156,0,2.979C70.966,14.958,71.507,15.164,72.044,15.164z"/><path d="M49.39,23.445c1.893-0.036,3.663,0.911,4.667,2.506c0.401,0.638,1.086,0.985,1.785,0.985c0.386,0,0.772-0.103,1.122-0.324   c0.985-0.62,1.281-1.922,0.661-2.904c-1.796-2.853-5.029-4.582-8.351-4.476c-1.163,0.031-2.081,1.001-2.05,2.164   C47.258,22.557,48.233,23.383,49.39,23.445z"/><path d="M86.958,27.327c-5.516-0.903-11.168-0.943-16.832-0.218c-0.656-4.382-2.637-8.424-5.876-11.577   c-3.985-3.879-9.243-5.945-14.808-5.783c-9.881,0.262-18.07,7.815-19.562,17.354c-5.729-0.755-11.656-0.683-16.894,0.232   c-2.092,0.399-3.553,2.161-3.553,4.286v56.638c0,0.849,0.417,1.639,1.122,2.115c0.437,0.296,1.345,0.458,1.873,0.388l2.099-0.311   c10.697-1.544,21.321-0.723,31.589,2.457l3.267,1.001C49.583,93.969,49.792,94,50,94c0.224,0,1.32-0.327,1.32-0.327   c10.946-3.789,22.716-4.898,34.053-3.223c0,0,1.307,0.081,1.729,0.185c0.809,0.201,1.649,0.211,2.344-0.262   c0.579-0.391,1.122-1.415,1.122-2.115V31.62C90.567,29.495,89.106,27.733,86.958,27.327z M49.555,13.962   c0.149-0.005,0.298-0.005,0.448-0.005c4.252,0,8.253,1.621,11.306,4.595c3.164,3.079,4.906,7.206,4.906,11.62   c0,4.517-1.906,8.863-5.233,11.924c-1.878,1.731-2.912,4.003-2.912,6.401c0,2.627-2.138,4.764-4.764,4.764h-1.201V42.183   c0-1.163-0.944-2.107-2.107-2.107c-1.163,0-2.107,0.944-2.107,2.107v11.077h-1.201c-2.627,0-4.764-2.138-4.764-4.764   c0-2.4-1.034-4.672-2.912-6.401c-3.362-3.095-5.269-7.489-5.233-12.058C33.852,21.402,40.927,14.191,49.555,13.962z M50.005,63.443   c-2.778,0-5.037-2.261-5.037-5.04v-1.103c0.558,0.109,1.132,0.174,1.721,0.174h6.617c0.579,0,1.145-0.066,1.693-0.171v1.1   C54.999,61.182,52.758,63.443,50.005,63.443z M13.915,86.28l-0.265,0.044l0.095-54.842c4.867-0.847,10.53-0.904,15.95-0.157   c0.304,5.273,2.557,10.279,6.465,13.874c1.001,0.918,1.551,2.092,1.551,3.298c0,2.667,1.191,5.038,3.041,6.684v3.223   c0,4.374,3.059,8.026,7.141,8.988v21.653l-0.538-0.164C36.491,85.511,25.244,84.638,13.915,86.28z M86.353,86.331l-0.376-0.051   c-11.265-1.675-22.916-0.634-33.87,2.803V67.391c4.065-0.961,7.108-4.613,7.108-8.988v-3.199c1.868-1.646,3.069-4.028,3.069-6.708   c0-1.207,0.553-2.38,1.554-3.301c3.9-3.589,6.166-8.599,6.47-13.866c5.377-0.72,10.748-0.685,16.045,0.291V86.331z"/><path d="M22.152,49.603h6.776c1.163,0,2.107-0.944,2.107-2.107c0-1.163-0.944-2.107-2.107-2.107h-6.776   c-1.163,0-2.107,0.944-2.107,2.107C20.045,48.658,20.989,49.603,22.152,49.603z"/><path d="M22.152,62.828h12.042c1.165,0,2.107-0.944,2.107-2.107c0-1.163-0.942-2.107-2.107-2.107H22.152   c-1.165,0-2.11,0.944-2.11,2.107C20.042,61.884,20.987,62.828,22.152,62.828z"/><path d="M37.623,70.988H22.152c-1.165,0-2.11,0.944-2.11,2.107s0.944,2.107,2.11,2.107h15.471c1.163,0,2.107-0.944,2.107-2.107   S38.786,70.988,37.623,70.988z"/><path d="M68.968,48.347c0,1.163,0.944,2.107,2.11,2.107h6.774c1.163,0,2.107-0.944,2.107-2.107s-0.944-2.107-2.107-2.107h-6.774   C69.912,46.24,68.968,47.184,68.968,48.347z"/><path d="M77.848,58.614H65.806c-1.165,0-2.107,0.944-2.107,2.107c0,1.163,0.942,2.107,2.107,2.107h12.042   c1.165,0,2.11-0.944,2.11-2.107C79.958,59.558,79.013,58.614,77.848,58.614z"/><path d="M76.341,70.975H62.372c-1.163,0-2.107,0.944-2.107,2.107s0.944,2.107,2.107,2.107h13.969c1.163,0,2.107-0.944,2.107-2.107   S77.503,70.975,76.341,70.975z"/></g><text x="0" y="115" fill="#000000" font-size="5px" font-weight="bold" font-family="'Helvetica Neue', Helvetica, Arial-Unicode, Arial, Sans-serif">Created by Prashanth Rapolu</text><text x="0" y="120" fill="#000000" font-size="5px" font-weight="bold" font-family="'Helvetica Neue', Helvetica, Arial-Unicode, Arial, Sans-serif">from the Noun Project</text></svg>