<svg xmlns="http://www.w3.org/2000/svg" xmlns:xlink="http://www.w3.org/1999/xlink" version="1.1" x="0px" y="0px" viewBox="0 0 100 125" enable-background="new 0 0 100 100" xml:space="preserve"><path d="M71.8,52.9H58V42.8c0-3.9-1.1-6.7-3.3-8.3c-3.5-2.6-8.3-1.1-8.5-1c-0.4,0.1-0.7,0.5-0.7,1v10.8c0,8.9-10.2,11.8-10.6,12  l-0.9,0.3c-0.6-1-1.7-1.7-3-1.7h-8.3c-1.9,0-3.4,1.5-3.4,3.4v27.4c0,1.9,1.5,3.4,3.4,3.4h8.3c1.2,0,2.3-0.7,2.9-1.7  c1.5,2,3.8,3.3,6.5,3.3h26.3c5.6,0,9.1-2.9,9.7-7.9l3.5-22.3c0-0.1,0-0.1,0-0.2V61C79.9,56.5,76.2,52.9,71.8,52.9z M32.2,86.5  c0,0.7-0.6,1.3-1.3,1.3h-8.3c-0.7,0-1.3-0.6-1.3-1.3V59.2c0-0.7,0.6-1.3,1.3-1.3h8.3c0.7,0,1.3,0.6,1.3,1.3V86.5z M77.8,61.2  l-3.5,22.2c-0.6,5.1-4.5,6.1-7.6,6.1H40.3c-3.3,0-6-2.7-6-6v-24l1.1-0.3c0.1,0,12.1-3.5,12.1-14v-9.9c1.3-0.3,4-0.6,6,0.9  c1.6,1.2,2.5,3.4,2.5,6.6v11.1c0,0.6,0.5,1,1,1h14.8c3.3,0,6,2.7,6,6V61.2z M63,27.4c-0.3,0-0.5-0.1-0.7-0.3c-0.4-0.4-0.4-1.1,0-1.5  l8.3-8.3c0.4-0.4,1.1-0.4,1.5,0c0.4,0.4,0.4,1.1,0,1.5l-8.3,8.3C63.5,27.3,63.2,27.4,63,27.4z M80.9,38.5c0,0.6-0.5,1-1,1H68  c-0.6,0-1-0.5-1-1s0.5-1,1-1h11.8C80.4,37.5,80.9,38,80.9,38.5z M50.8,22.3c-0.6,0-1-0.5-1-1V9.5c0-0.6,0.5-1,1-1s1,0.5,1,1v11.8  C51.8,21.8,51.3,22.3,50.8,22.3z M37.8,27.1l-8.3-8.3c-0.4-0.4-0.4-1.1,0-1.5c0.4-0.4,1.1-0.4,1.5,0l8.3,8.3c0.4,0.4,0.4,1.1,0,1.5  c-0.2,0.2-0.5,0.3-0.7,0.3C38.3,27.4,38,27.3,37.8,27.1z M33.5,37.5c0.6,0,1,0.5,1,1s-0.5,1-1,1H21.7c-0.6,0-1-0.5-1-1s0.5-1,1-1  H33.5z"/><text x="0" y="115" fill="#000000" font-size="5px" font-weight="bold" font-family="'Helvetica Neue', Helvetica, Arial-Unicode, Arial, Sans-serif">Created by Gregor Cresnar</text><text x="0" y="120" fill="#000000" font-size="5px" font-weight="bold" font-family="'Helvetica Neue', Helvetica, Arial-Unicode, Arial, Sans-serif">from the Noun Project</text></svg>