<svg xmlns="http://www.w3.org/2000/svg" xmlns:xlink="http://www.w3.org/1999/xlink" xmlns:serif="http://www.serif.com/" viewBox="0 0 48 60" version="1.1" xml:space="preserve" style="" x="0px" y="0px" fill-rule="evenodd" clip-rule="evenodd" stroke-linejoin="round" stroke-miterlimit="2"><g transform="matrix(1,0,0,1,-240,-432)"><g><path d="M253,461.513C252.061,461.181 251.052,461 250,461C245.033,461 241,465.033 241,470C241,474.967 245.033,479 250,479C254.967,479 259,474.967 259,470L259,451.266C259,450.761 259.376,450.336 259.876,450.273C259.876,450.273 279.876,447.773 279.876,447.773C280.161,447.738 280.447,447.826 280.662,448.016C280.877,448.206 281,448.479 281,448.766C281,448.766 281,461.513 281,461.513C280.061,461.181 279.052,461 278,461C273.033,461 269,465.033 269,470C269,474.967 273.033,479 278,479C282.967,479 287,474.967 287,470C287,469.464 287,448.085 287,438.531C287,437.097 286.384,435.732 285.309,434.783C284.234,433.834 282.803,433.392 281.38,433.57C274.939,434.375 263.22,435.84 257.38,436.57C254.878,436.883 253,439.01 253,441.531C253,441.531 253,461.513 253,461.513L253,461.513ZM253.499,463.937C253.808,464.116 254.19,464.117 254.499,463.938C254.809,463.759 255,463.429 255,463.072L255,441.531C255,440.018 256.127,438.742 257.628,438.554C257.628,438.554 281.628,435.554 281.628,435.554C282.482,435.448 283.34,435.713 283.985,436.282C284.631,436.852 285,437.671 285,438.531C285,448.085 285,469.464 285,470C285,473.863 281.863,477 278,477C274.137,477 271,473.863 271,470C271,466.137 274.137,463 278,463C279.274,463 280.469,463.341 281.499,463.937C281.808,464.116 282.19,464.117 282.499,463.938C282.809,463.759 283,463.429 283,463.072L283,448.766C283,447.905 282.63,447.086 281.985,446.517C281.34,445.947 280.482,445.682 279.628,445.789L259.628,448.289C258.127,448.476 257,449.753 257,451.266L257,470C257,473.863 253.863,477 250,477C246.137,477 243,473.863 243,470C243,466.137 246.137,463 250,463C251.274,463 252.469,463.341 253.499,463.937Z"/></g></g><text x="0" y="63" fill="#000000" font-size="5px" font-weight="bold" font-family="'Helvetica Neue', Helvetica, Arial-Unicode, Arial, Sans-serif">Created by Mada Creative</text><text x="0" y="68" fill="#000000" font-size="5px" font-weight="bold" font-family="'Helvetica Neue', Helvetica, Arial-Unicode, Arial, Sans-serif">from the Noun Project</text></svg>