<svg xmlns="http://www.w3.org/2000/svg" xmlns:xlink="http://www.w3.org/1999/xlink" xml:space="preserve" version="1.1" style="shape-rendering:geometricPrecision;text-rendering:geometricPrecision;image-rendering:optimizeQuality;" viewBox="0 0 333.33 416.66249999999997" x="0px" y="0px" fill-rule="evenodd" clip-rule="evenodd"><defs><style type="text/css">
   
    .fil0 {fill:black;fill-rule:nonzero}
   
  </style></defs><g><path class="fil0" d="M166.67 60.2c58.8,0 106.46,47.67 106.46,106.46 0,58.8 -47.67,106.46 -106.46,106.46 -58.8,0 -106.46,-47.67 -106.46,-106.46 0,-58.8 47.67,-106.46 106.46,-106.46zm61.86 106.3l-99.2 69.91 0 -139.83 99.2 69.91zm-26.85 0l-56.85 -40.07 0 80.13 56.85 -40.07zm124.26 0.17c0,37.32 -12.89,72.7 -36.24,101.09l-11.93 -9.81c21.02,-25.55 32.66,-57.61 32.66,-91.29 0,-33.68 -11.64,-65.74 -32.66,-91.29l11.93 -9.81c23.35,28.39 36.24,63.77 36.24,101.09zm-318.53 0c0,-37.33 12.88,-72.7 36.24,-101.09l11.93 9.81c-21.02,25.55 -32.66,57.61 -32.66,91.29 0,33.68 11.65,65.74 32.66,91.29l-11.93 9.81c-23.35,-28.39 -36.24,-63.77 -36.24,-101.09zm159.26 -90.96c-50.24,0 -90.96,40.72 -90.96,90.96 0,50.24 40.72,90.96 90.96,90.96 50.24,0 90.96,-40.72 90.96,-90.96 0,-50.24 -40.72,-90.96 -90.96,-90.96z"/></g><text x="0" y="348.33" fill="#000000" font-size="5px" font-weight="bold" font-family="'Helvetica Neue', Helvetica, Arial-Unicode, Arial, Sans-serif">Created by PEBIAN</text><text x="0" y="353.33" fill="#000000" font-size="5px" font-weight="bold" font-family="'Helvetica Neue', Helvetica, Arial-Unicode, Arial, Sans-serif">from the Noun Project</text></svg>