<svg xmlns="http://www.w3.org/2000/svg" data-name="Layer 1" viewBox="0 0 100 125" x="0px" y="0px"><title>Library</title><path d="M25.625,83.75H14.375A5.631,5.631,0,0,1,8.75,78.125V21.875a5.631,5.631,0,0,1,5.625-5.625h11.25a5.631,5.631,0,0,1,5.625,5.625v56.25A5.631,5.631,0,0,1,25.625,83.75ZM14.375,20A1.876,1.876,0,0,0,12.5,21.875v56.25A1.876,1.876,0,0,0,14.375,80h11.25A1.876,1.876,0,0,0,27.5,78.125V21.875A1.876,1.876,0,0,0,25.625,20Z"/><path d="M23.75,31.25h-7.5a1.875,1.875,0,0,1,0-3.75h7.5a1.875,1.875,0,0,1,0,3.75Z"/><path d="M23.75,72.5h-7.5a1.875,1.875,0,0,1,0-3.75h7.5a1.875,1.875,0,0,1,0,3.75Z"/><path d="M50,83.75H38.75a5.631,5.631,0,0,1-5.625-5.625V21.875A5.631,5.631,0,0,1,38.75,16.25H50a5.631,5.631,0,0,1,5.625,5.625v56.25A5.631,5.631,0,0,1,50,83.75ZM38.75,20a1.876,1.876,0,0,0-1.875,1.875v56.25A1.876,1.876,0,0,0,38.75,80H50a1.876,1.876,0,0,0,1.875-1.875V21.875A1.876,1.876,0,0,0,50,20Z"/><path d="M48.125,31.25h-7.5a1.875,1.875,0,0,1,0-3.75h7.5a1.875,1.875,0,0,1,0,3.75Z"/><path d="M48.125,72.5h-7.5a1.875,1.875,0,0,1,0-3.75h7.5a1.875,1.875,0,0,1,0,3.75Z"/><path d="M76.622,83.751A5.627,5.627,0,0,1,71.2,79.579L56.641,25.247a5.623,5.623,0,0,1,3.977-6.889l10.866-2.912a5.641,5.641,0,0,1,6.89,3.976L92.933,73.756a5.634,5.634,0,0,1-3.977,6.889L78.088,83.557A5.657,5.657,0,0,1,76.622,83.751ZM72.939,19a1.9,1.9,0,0,0-.485.064L61.589,21.979a1.876,1.876,0,0,0-1.326,2.3L74.822,78.609a1.873,1.873,0,0,0,2.3,1.326l10.867-2.911h0a1.88,1.88,0,0,0,1.326-2.3L74.752,20.394A1.88,1.88,0,0,0,72.939,19Z"/><path d="M65.824,32.426a1.876,1.876,0,0,1-.483-3.687L72.586,26.8a1.875,1.875,0,0,1,.971,3.622l-7.246,1.941A1.907,1.907,0,0,1,65.824,32.426Z"/><path d="M76.5,72.27a1.876,1.876,0,0,1-.484-3.687l7.244-1.941a1.875,1.875,0,0,1,.971,3.622l-7.244,1.941A1.864,1.864,0,0,1,76.5,72.27Z"/><text x="0" y="115" fill="#000000" font-size="5px" font-weight="bold" font-family="'Helvetica Neue', Helvetica, Arial-Unicode, Arial, Sans-serif">Created by Hilmy Abiyyu Asad</text><text x="0" y="120" fill="#000000" font-size="5px" font-weight="bold" font-family="'Helvetica Neue', Helvetica, Arial-Unicode, Arial, Sans-serif">from the Noun Project</text></svg>