<svg xmlns="http://www.w3.org/2000/svg" xmlns:xlink="http://www.w3.org/1999/xlink" version="1.1" x="0px" y="0px" viewBox="0 0 100 125" enable-background="new 0 0 100 100" xml:space="preserve"><path d="M41.452,35.962c-7.927,0-14.353,6.426-14.353,14.354s6.426,14.353,14.353,14.353c7.928,0,14.354-6.425,14.354-14.353  S49.38,35.962,41.452,35.962z M41.452,61.668c-6.26,0-11.353-5.093-11.353-11.353c0-6.261,5.093-11.354,11.353-11.354  c6.262,0,11.354,5.093,11.354,11.354C52.807,56.576,47.714,61.668,41.452,61.668z"/><path d="M90.505,8.115H56.81c-2.482,0.006-4.489,2.014-4.495,4.495v12.274L8.5,24.885c-1.936,0.006-3.494,1.565-3.5,3.5v60  c0.006,1.935,1.564,3.493,3.5,3.5l74-0.001c1.936-0.006,3.494-1.564,3.5-3.499V39.575l4.507-0.005  c2.48-0.006,4.488-2.014,4.493-4.495V12.61C94.994,10.128,92.987,8.121,90.505,8.115z M32.347,71.162h1.19l3.658,6.586L35.09,88.884  l-9.247,0.001l0.256-3.389c0.062-0.826-0.558-1.546-1.384-1.608s-1.546,0.557-1.608,1.383l-0.271,3.614h-8.854l2.295-13.721  c0.111-0.693,0.547-1.468,1.182-2.059c0.631-0.596,1.432-0.981,2.131-1.047l4.931-0.507l-0.003,0.001  C26.63,71.339,30.223,71.16,32.347,71.162z M59.774,85.097c-0.158-0.813-0.945-1.344-1.758-1.186  c-0.813,0.158-1.345,0.945-1.187,1.759l0.626,3.214H47.212L45.084,77.75l3.696-6.582c2.155,0.027,5.23,0.172,7.134,0.342  l6.079,0.539c0.709,0.057,1.568,0.438,2.265,1.037c0.702,0.591,1.218,1.378,1.388,2.068l2.73,10.705  c0.246,0.961,0.514,2.028,0.76,3.025h-8.624L59.774,85.097z M40.013,78.993h2.254l1.891,9.892h-6.014L40.013,78.993z M42.63,75.992  h-2.978l-2.684-4.83c2.216,0,5.462,0,7.509,0h0.865L42.63,75.992z M83,88.385c-0.001,0.136-0.053,0.254-0.148,0.352  c-0.097,0.095-0.216,0.147-0.352,0.147H72.226c-0.291-1.187-0.634-2.559-0.941-3.767l-2.732-10.705  c-0.373-1.44-1.25-2.671-2.351-3.613c-1.106-0.935-2.462-1.603-3.944-1.739l-6.078-0.539c-2.258-0.199-5.85-0.359-8.117-0.359  h-3.584c-2.2,0-5.8,0-8,0h-4.131c-2.276,0.001-5.865,0.181-8.13,0.406l-4.934,0.507c-1.488,0.157-2.825,0.861-3.877,1.843  c-1.047,0.986-1.836,2.275-2.089,3.752L10.94,88.885H8.5c-0.136-0.001-0.255-0.054-0.352-0.148C8.053,88.639,8.001,88.521,8,88.385  v-60c0.001-0.136,0.053-0.255,0.148-0.353c0.097-0.095,0.216-0.147,0.352-0.147l43.814-0.001v7.19  c0.006,2.481,2.013,4.489,4.495,4.495h-0.008l5.044,0.023v5.791c0,0.588,0.344,1.122,0.88,1.365c0.535,0.244,1.164,0.15,1.606-0.235  l7.933-6.925L83,39.578V88.385z M92,35.075c-0.001,0.41-0.165,0.776-0.44,1.055c-0.277,0.275-0.645,0.44-1.055,0.44L71.7,36.591  c-0.359,0-0.715,0.133-0.984,0.369l-5.87,5.123v-3.981c0-0.824-0.669-1.496-1.493-1.5l-6.535-0.032H56.81  c-0.41,0-0.777-0.165-1.055-0.44c-0.275-0.278-0.439-0.645-0.44-1.055V12.61c0.001-0.409,0.165-0.776,0.44-1.054  c0.277-0.275,0.645-0.44,1.055-0.44h33.695c0.41,0,0.777,0.165,1.055,0.44c0.275,0.277,0.439,0.644,0.44,1.054V35.075z"/><circle cx="81" cy="27.884" r="2.5"/><circle cx="74" cy="27.884" r="2.5"/><circle cx="67" cy="27.884" r="2.5"/><text x="0" y="115" fill="#000000" font-size="5px" font-weight="bold" font-family="'Helvetica Neue', Helvetica, Arial-Unicode, Arial, Sans-serif">Created by Tomas Knopp</text><text x="0" y="120" fill="#000000" font-size="5px" font-weight="bold" font-family="'Helvetica Neue', Helvetica, Arial-Unicode, Arial, Sans-serif">from the Noun Project</text></svg>