<svg xmlns="http://www.w3.org/2000/svg" data-name="Layer 1" viewBox="0 0 100 125" x="0px" y="0px"><title>Artboard 3</title><path d="M78,26.12a8.73,8.73,0,0,1,3.46,11.75,2.5,2.5,0,1,0,4.41,2.36,13.73,13.73,0,0,0-5.43-18.48A2.5,2.5,0,0,0,78,26.12Z"/><path d="M83.86,9.25a2.5,2.5,0,1,0-2.43,4.37A24.45,24.45,0,0,1,91.1,46.53a2.5,2.5,0,1,0,4.41,2.36A29.45,29.45,0,0,0,83.86,9.25Z"/><path d="M13.09,29.88a13.66,13.66,0,0,0,1.07,10.35,2.5,2.5,0,1,0,4.41-2.36A8.73,8.73,0,0,1,22,26.12a2.5,2.5,0,0,0-2.43-4.37A13.66,13.66,0,0,0,13.09,29.88Z"/><path d="M6.7,50.2a2.5,2.5,0,0,0,2.2-3.68,24.45,24.45,0,0,1,9.67-32.91,2.5,2.5,0,0,0-2.43-4.37A29.45,29.45,0,0,0,4.49,48.88,2.5,2.5,0,0,0,6.7,50.2Z"/><path d="M19.11,66.1a9.94,9.94,0,0,0-1.84,11.44A10.11,10.11,0,0,0,26.37,83H41.51v6.22a8.49,8.49,0,0,0,17,0V83H73.91a9.89,9.89,0,0,0,9.87-9.87v-.33a9.88,9.88,0,0,0-2.38-6.43l-2.28-2.66A13.14,13.14,0,0,1,76,55.12V41.66q0-.85-.05-1.68A24.63,24.63,0,0,0,58.49,18.25V10.83a8.49,8.49,0,1,0-17,0v7.42A24.63,24.63,0,0,0,24.09,40q-.05.83-.05,1.68V55.73A13,13,0,0,1,20.19,65ZM53.49,89.17a3.49,3.49,0,0,1-7,0V83h7Zm-7-78.34a3.49,3.49,0,1,1,7,0v6.38a26,26,0,0,0-2.73-.15H49.24a26,26,0,0,0-2.73.15ZM22.64,69.64l1.08-1.08A18,18,0,0,0,29,55.73V41.66q0-.69,0-1.36c.65-10.23,9.51-18.24,20.16-18.24h1.52c10.65,0,19.5,8,20.16,18.24q0,.67,0,1.36V55.12a18.14,18.14,0,0,0,4.36,11.8l2.28,2.66a4.88,4.88,0,0,1,1.17,3.17v.33A4.88,4.88,0,0,1,73.91,78H56.17l-.18,0-.18,0H44.2l-.18,0-.18,0H26.37a5.09,5.09,0,0,1-4.62-2.63A4.88,4.88,0,0,1,22.64,69.64Z"/><path d="M37.31,50.2a2.5,2.5,0,0,0,2.5-2.5V42c0-.22,0-.44,0-.67.29-4.59,4.42-8.19,9.4-8.19a2.5,2.5,0,1,0,0-5c-7.61,0-13.93,5.65-14.39,12.87,0,.33,0,.66,0,1V47.7A2.5,2.5,0,0,0,37.31,50.2Z"/><text x="0" y="115" fill="#000000" font-size="5px" font-weight="bold" font-family="'Helvetica Neue', Helvetica, Arial-Unicode, Arial, Sans-serif">Created by Gregor Cresnar</text><text x="0" y="120" fill="#000000" font-size="5px" font-weight="bold" font-family="'Helvetica Neue', Helvetica, Arial-Unicode, Arial, Sans-serif">from the Noun Project</text></svg>