<svg xmlns="http://www.w3.org/2000/svg" xmlns:xlink="http://www.w3.org/1999/xlink" xmlns:serif="http://www.serif.com/" viewBox="0 0 64 80" version="1.1" xml:space="preserve" style="" x="0px" y="0px" fill-rule="evenodd" clip-rule="evenodd" stroke-linejoin="round" stroke-miterlimit="2"><g transform="matrix(1,0,0,1,24,16.9698)"><path d="M0,30.03C0,26.514 1.228,21.484 4.763,17.674C6.667,20.836 9.179,22.715 11.287,24.292C11.495,24.447 11.698,24.599 11.897,24.75C14.387,26.633 16,28.117 16,31.03C16,35.448 12.418,39.03 8,39.03C3.582,39.03 0,35.448 0,31.03L0,30.03ZM5.895,15.583C5.754,15.302 5.49,15.104 5.182,15.047C4.873,14.989 4.556,15.081 4.324,15.293C-0.437,19.657 -2,25.832 -2,30.03L-2,31.03C-2,36.553 2.477,41.03 8,41.03C13.523,41.03 18,36.553 18,31.03C18,27.068 15.613,25.052 13.103,23.155C12.907,23.006 12.71,22.858 12.512,22.71L12.51,22.708C10.138,20.929 7.626,19.047 5.895,15.583M-0.993,-0.794C3.062,-4.52 7.501,-8.599 11.171,-14.346C15.501,-9.622 16.274,-5.462 15.987,-1.814C15.832,0.165 15.362,2.018 14.906,3.817L14.893,3.87C14.448,5.623 14,7.39 14,9.03C14,12.343 16.687,15.03 20,15.03C22.959,15.03 25.418,12.887 25.91,10.069C28.743,12.958 30,17.97 30,23.485C30,35.384 20.354,45.03 8.455,45.03L7.545,45.03C-4.354,45.03 -14,35.384 -14,23.485C-14,18.511 -13.022,14.674 -11.43,11.454C-9.833,8.225 -7.594,5.569 -4.998,2.983C-3.739,1.73 -2.389,0.489 -0.993,-0.794M11.707,-16.677C11.489,-16.895 11.183,-17 10.877,-16.962C10.571,-16.925 10.3,-16.748 10.142,-16.484C6.511,-10.417 2.063,-6.327 -2.203,-2.405C-3.638,-1.085 -5.053,0.215 -6.409,1.566C-9.078,4.224 -11.487,7.059 -13.223,10.568C-14.962,14.086 -16,18.231 -16,23.485C-16,36.488 -5.458,47.03 7.545,47.03L8.455,47.03C21.458,47.03 32,36.488 32,23.485C32,16.959 30.31,10.305 25.547,7.193C25.24,6.992 24.847,6.976 24.524,7.151C24.201,7.325 24,7.663 24,8.03L24,9.03C24,11.239 22.209,13.03 20,13.03C17.791,13.03 16,11.239 16,9.03C16,7.679 16.375,6.16 16.838,4.332L16.86,4.248C17.307,2.486 17.812,0.492 17.981,-1.657C18.332,-6.119 17.228,-11.157 11.707,-16.677" style="" fill="#000000"/></g><text x="0" y="79" fill="#000000" font-size="5px" font-weight="bold" font-family="'Helvetica Neue', Helvetica, Arial-Unicode, Arial, Sans-serif">Created by Muhamad Ulum</text><text x="0" y="84" fill="#000000" font-size="5px" font-weight="bold" font-family="'Helvetica Neue', Helvetica, Arial-Unicode, Arial, Sans-serif">from the Noun Project</text></svg>